<svg width="23" height="24" viewBox="0 0 23 24" fill="none" xmlns="http://www.w3.org/2000/svg">
<path fill-rule="evenodd" clip-rule="evenodd" d="M12.6116 0.0814803C14.0049 0.0833969 14.6728 0.0910634 15.266 0.110229L15.6809 0.125562L16.2415 0.14952C17.4652 0.20606 18.3018 0.400596 19.033 0.684253C19.8 0.973134 20.4949 1.42573 21.0693 2.01055C21.6544 2.58541 22.107 3.28103 22.3955 4.04886C22.6801 4.78004 22.8747 5.61664 22.9303 6.8404L22.9552 7.40101L22.9695 7.81499C22.9887 8.40914 22.9964 9.07708 22.9983 10.4695L22.9993 11.2793V12.6928C23.0029 13.5777 22.9933 14.4626 22.9705 15.3473L22.9552 15.7612L22.9303 16.3219C22.8747 17.5456 22.6801 18.3822 22.3955 19.1134C22.1069 19.8809 21.6543 20.5762 21.0693 21.1507C20.495 21.7356 19.8001 22.1882 19.033 22.477C18.3008 22.7607 17.4652 22.9562 16.2415 23.0118L15.6809 23.0357L15.266 23.0511C14.3814 23.0739 13.4965 23.0834 12.6116 23.0798H10.3884C9.50319 23.0835 8.61797 23.0739 7.73304 23.0511L7.3181 23.0357C7.13154 23.0282 6.945 23.0202 6.75847 23.0118C5.5338 22.9552 4.69819 22.7607 3.96703 22.477C3.19957 22.1884 2.50431 21.7357 1.92975 21.1507C1.34477 20.5762 0.892162 19.8809 0.603498 19.1134C0.318892 18.3822 0.124363 17.5456 0.068783 16.3219L0.0438679 15.7612L0.0294938 15.3473C0.00670569 14.4626 -0.00287808 13.5777 0.000745709 12.6928V10.4676C0.00266225 9.07516 0.0103284 8.40722 0.0294938 7.81308L0.0438679 7.39909L0.068783 6.83848C0.124363 5.61473 0.318892 4.77813 0.603498 4.04694C0.892135 3.27944 1.34474 2.58415 1.92975 2.00959C2.50448 1.42526 3.19973 0.973297 3.96703 0.685212C4.69819 0.400596 5.5338 0.20606 6.75847 0.14952L7.3181 0.125562L7.73399 0.110229C8.61828 0.0869839 9.50287 0.0773997 10.3874 0.0814803H12.6116ZM12.5924 2.15333H10.4076C8.88009 2.15621 8.24763 2.16483 7.6075 2.18783L7.40435 2.1955C7.22034 2.20302 7.03635 2.21101 6.85238 2.21946C5.73121 2.2712 5.1227 2.45903 4.71736 2.61619C4.21775 2.8001 3.76583 3.09386 3.39494 3.47579C2.99247 3.87828 2.74332 4.2616 2.53441 4.79825C2.37726 5.20361 2.18944 5.8131 2.13865 6.93431L2.11469 7.48629L2.10703 7.68945C2.08307 8.32864 2.07444 8.96112 2.07253 10.4887V12.6736C2.07444 14.2011 2.08307 14.8327 2.10703 15.4728L2.11469 15.676L2.13865 16.2279C2.18944 17.3492 2.37726 17.9586 2.53441 18.364C2.74332 18.9007 2.99247 19.284 3.39494 19.6865C3.79742 20.0889 4.18072 20.3381 4.71736 20.5461C5.1227 20.7042 5.73121 20.891 6.85238 20.9418C7.90361 20.9898 8.31662 21.0051 10.4076 21.0089H12.5924C14.6824 21.0051 15.0954 20.9898 16.1467 20.9418C17.2678 20.891 17.8763 20.7042 18.2817 20.5461C18.7813 20.3622 19.2332 20.0684 19.6041 19.6865C20.0066 19.284 20.2557 18.9007 20.4646 18.364C20.6218 17.9586 20.8096 17.3492 20.8604 16.2279L20.8843 15.676L20.893 15.4728C20.916 14.8327 20.9246 14.2011 20.9265 12.6736V10.4887C20.9246 8.96112 20.916 8.32864 20.893 7.68945L20.8843 7.48629C20.8768 7.30228 20.8689 7.11828 20.8604 6.93431C20.8096 5.8131 20.6218 5.20361 20.4646 4.79825C20.2802 4.29864 19.9862 3.84674 19.6041 3.47579C19.2332 3.09386 18.7813 2.8001 18.2817 2.61619C17.8763 2.45807 17.2678 2.2712 16.1467 2.21946L15.5947 2.1955L15.3915 2.18783C14.7514 2.16483 14.1199 2.15621 12.5924 2.15333ZM11.5 5.6751C13.0663 5.6751 14.5685 6.29734 15.676 7.40494C16.7836 8.51253 17.4058 10.0148 17.4058 11.5811C17.4058 13.1475 16.7836 14.6497 15.676 15.7573C14.5685 16.8649 13.0663 17.4872 11.5 17.4872C9.93368 17.4872 8.43151 16.8649 7.32395 15.7573C6.21639 14.6497 5.59417 13.1475 5.59417 11.5811C5.59417 10.0148 6.21639 8.51253 7.32395 7.40494C8.43151 6.29734 9.93368 5.6751 11.5 5.6751ZM11.5 7.74791C10.4834 7.74791 9.50844 8.15177 8.7896 8.87063C8.07076 9.5895 7.66691 10.5645 7.66691 11.5811C7.66691 12.5978 8.07076 13.5728 8.7896 14.2916C9.50844 15.0105 10.4834 15.4143 11.5 15.4143C12.5166 15.4143 13.4916 15.0105 14.2104 14.2916C14.9292 13.5728 15.3331 12.5978 15.3331 11.5811C15.3331 10.5645 14.9292 9.5895 14.2104 8.87063C13.4916 8.15177 12.5166 7.74791 11.5 7.74791ZM17.6387 4.06227C18.0047 4.06227 18.3556 4.20766 18.6144 4.46645C18.8732 4.72525 19.0186 5.07624 19.0186 5.44223C19.0186 5.80822 18.8732 6.15922 18.6144 6.41801C18.3556 6.6768 18.0047 6.82219 17.6387 6.82219C17.2727 6.82219 16.9217 6.6768 16.6629 6.41801C16.4042 6.15922 16.2588 5.80822 16.2588 5.44223C16.2588 5.07624 16.4042 4.72525 16.6629 4.46645C16.9217 4.20766 17.2727 4.06227 17.6387 4.06227Z" fill="#EB7470"/>
</svg>
