<svg width="317" height="60" viewBox="0 0 317 60" fill="none" xmlns="http://www.w3.org/2000/svg">
<path d="M18.144 41.256C18.144 44.088 16.8 45.48 14.064 45.48C11.232 45.48 9.696 43.896 9.696 41.064C9.696 39.576 9.792 37.224 10.032 34.104C10.272 30.984 10.368 27.816 10.368 24.6C10.368 23.304 10.368 22.92 10.176 22.104C9.936 21.336 9.408 21.048 8.592 21.048C7.824 21.048 5.808 21.288 5.04 21.288C2.496 21.288 0.72 19.896 0.72 17.352C0.72 14.52 2.496 13.656 5.52 13.656C6.432 13.656 7.824 13.704 9.696 13.848C11.568 13.992 13.008 14.04 13.968 14.04C14.88 14.04 16.32 13.944 18.288 13.8C20.256 13.656 21.696 13.608 22.704 13.608C25.632 13.608 27.12 14.808 27.12 17.16C27.12 20.28 25.776 21.192 23.088 21.192C22.368 21.192 19.776 21.048 19.104 21.048C17.376 21.288 17.328 22.632 17.376 24.168C17.376 27.096 17.52 30.216 17.76 33.528C18 36.888 18.144 39.48 18.144 41.256ZM32.7934 11.544C35.5294 11.544 36.8734 13.08 36.8734 16.152C36.8734 16.2 36.8254 17.16 36.7294 19.08C36.6334 21.048 36.5854 22.392 36.5854 23.208L37.0654 22.776C38.6014 21.432 40.7614 20.76 43.5934 20.76C49.5934 20.76 51.4654 25.944 51.4654 31.368C51.4654 36.024 51.9454 39.672 51.9454 40.056C51.9454 43.656 50.6494 45.48 48.1054 45.48C45.5614 45.48 44.2174 43.368 44.2174 40.632C44.2174 39.624 44.3134 38.28 44.4574 36.552C44.6014 34.824 44.6974 33.24 44.6974 31.848C44.6974 29.4 43.0654 27.672 40.5694 27.672C38.0254 27.864 36.9694 28.968 36.5374 31.08C36.2014 32.616 36.2494 33.288 36.2494 35.016C36.2494 35.784 36.3454 36.84 36.5374 38.184C36.7294 39.576 36.8254 40.536 36.8254 41.16C36.8254 43.32 35.5774 45.432 33.0334 45.432C29.9614 45.432 28.9054 43.56 28.9054 40.248C28.9054 39.048 29.0494 36.984 29.2894 34.056C29.5294 31.128 29.6734 28.872 29.6734 27.336C29.6734 25.368 29.5294 23.4 29.2414 21.336C28.9534 19.32 28.8094 17.736 28.8094 16.584C28.8094 13.08 29.9614 11.544 32.7934 11.544ZM75.687 28.104C75.687 29.4 75.351 30.648 74.631 31.8C73.335 33.912 70.071 34.488 66.039 34.536C63.975 34.584 62.631 34.68 61.959 34.824C61.191 35.016 60.807 35.448 60.807 36.168C60.807 38.52 63.255 39.912 65.799 39.912C68.055 39.912 69.639 39.096 70.215 38.328C70.791 37.56 71.751 36.744 72.951 36.744C74.631 36.744 76.263 38.088 76.263 39.768C76.263 41.064 75.639 42.216 74.391 43.224C73.095 44.232 71.703 44.952 70.215 45.384C68.679 45.816 67.239 46.008 65.943 46.008C58.263 46.008 53.991 41.64 53.991 33.912C53.991 24.792 57.927 20.232 65.799 20.232C68.487 20.232 70.791 20.904 72.759 22.296C74.727 23.688 75.687 25.656 75.687 28.104ZM63.543 30.408C65.079 30.408 65.751 30.408 67.095 30.072C68.391 29.736 69.063 28.968 69.063 27.768C69.063 26.04 66.903 25.368 64.935 25.368C62.583 25.368 60.903 27.048 60.903 29.4C60.903 29.928 61.143 30.168 61.719 30.264C62.295 30.36 62.583 30.408 63.543 30.408ZM98.2695 45.624C94.6695 45.624 91.2615 44.904 88.6695 42.552C87.3735 41.352 86.7015 39.912 86.7015 38.136C86.7015 36.072 88.2375 34.776 90.3015 34.776C91.4535 34.776 92.8455 35.784 93.8535 36.744C94.8135 37.752 96.6855 38.76 98.6055 38.76C101.246 38.76 103.502 37.896 103.502 35.544C103.502 33.576 101.246 32.76 97.0695 31.896C94.9575 31.464 93.2775 30.984 92.0775 30.408C89.0535 29.064 87.3255 26.136 87.3255 22.824C87.3255 19.512 88.4295 17.064 90.6855 15.432C92.9415 13.848 95.7255 13.032 99.0855 13.032C100.766 13.032 102.494 13.272 104.222 13.8C105.95 14.328 107.246 15.192 108.11 16.296C108.734 17.064 109.022 17.832 109.022 18.648C109.022 20.52 107.486 22.248 105.614 22.248C105.086 22.248 103.982 21.864 102.35 21.048C100.718 20.232 99.2295 19.848 97.8375 19.848C95.9655 19.848 94.2855 20.52 94.2855 22.2C94.2855 28.584 110.894 22.488 110.894 35.64C110.894 40.104 107.966 43.32 104.318 44.616C102.446 45.288 100.43 45.624 98.2695 45.624ZM116.985 11.544C119.721 11.544 121.065 13.08 121.065 16.152C121.065 16.2 121.017 17.16 120.921 19.08C120.825 21.048 120.777 22.392 120.777 23.208L121.257 22.776C122.793 21.432 124.953 20.76 127.785 20.76C133.785 20.76 135.657 25.944 135.657 31.368C135.657 36.024 136.137 39.672 136.137 40.056C136.137 43.656 134.841 45.48 132.297 45.48C129.753 45.48 128.409 43.368 128.409 40.632C128.409 39.624 128.505 38.28 128.649 36.552C128.793 34.824 128.889 33.24 128.889 31.848C128.889 29.4 127.257 27.672 124.761 27.672C122.217 27.864 121.161 28.968 120.729 31.08C120.393 32.616 120.441 33.288 120.441 35.016C120.441 35.784 120.537 36.84 120.729 38.184C120.921 39.576 121.017 40.536 121.017 41.16C121.017 43.32 119.769 45.432 117.225 45.432C114.153 45.432 113.097 43.56 113.097 40.248C113.097 39.048 113.241 36.984 113.481 34.056C113.721 31.128 113.865 28.872 113.865 27.336C113.865 25.368 113.721 23.4 113.433 21.336C113.145 19.32 113.001 17.736 113.001 16.584C113.001 13.08 114.153 11.544 116.985 11.544ZM159.878 28.104C159.878 29.4 159.542 30.648 158.822 31.8C157.526 33.912 154.262 34.488 150.23 34.536C148.166 34.584 146.822 34.68 146.15 34.824C145.382 35.016 144.998 35.448 144.998 36.168C144.998 38.52 147.446 39.912 149.99 39.912C152.246 39.912 153.83 39.096 154.406 38.328C154.982 37.56 155.942 36.744 157.142 36.744C158.822 36.744 160.454 38.088 160.454 39.768C160.454 41.064 159.83 42.216 158.582 43.224C157.286 44.232 155.894 44.952 154.406 45.384C152.87 45.816 151.43 46.008 150.134 46.008C142.454 46.008 138.182 41.64 138.182 33.912C138.182 24.792 142.118 20.232 149.99 20.232C152.678 20.232 154.982 20.904 156.95 22.296C158.918 23.688 159.878 25.656 159.878 28.104ZM147.734 30.408C149.27 30.408 149.942 30.408 151.286 30.072C152.582 29.736 153.254 28.968 153.254 27.768C153.254 26.04 151.094 25.368 149.126 25.368C146.774 25.368 145.094 27.048 145.094 29.4C145.094 29.928 145.334 30.168 145.91 30.264C146.486 30.36 146.774 30.408 147.734 30.408ZM187.933 41.256C187.933 44.088 186.589 45.48 183.853 45.48C181.021 45.48 179.485 43.896 179.485 41.064C179.485 39.576 179.581 37.224 179.821 34.104C180.061 30.984 180.157 27.816 180.157 24.6C180.157 23.304 180.157 22.92 179.965 22.104C179.725 21.336 179.197 21.048 178.381 21.048C177.613 21.048 175.597 21.288 174.829 21.288C172.285 21.288 170.509 19.896 170.509 17.352C170.509 14.52 172.285 13.656 175.309 13.656C176.221 13.656 177.613 13.704 179.485 13.848C181.357 13.992 182.797 14.04 183.757 14.04C184.669 14.04 186.109 13.944 188.077 13.8C190.045 13.656 191.485 13.608 192.493 13.608C195.421 13.608 196.909 14.808 196.909 17.16C196.909 20.28 195.565 21.192 192.877 21.192C192.157 21.192 189.565 21.048 188.893 21.048C187.165 21.288 187.117 22.632 187.165 24.168C187.165 27.096 187.309 30.216 187.549 33.528C187.789 36.888 187.933 39.48 187.933 41.256ZM207.51 20.376C213.51 20.376 216.534 22.68 216.534 27.24C216.534 27.768 216.486 28.584 216.438 29.736C216.342 30.888 216.294 31.704 216.294 32.232C216.294 34.824 216.39 37.128 216.582 39.144C216.726 41.208 216.822 42.264 216.822 42.408C216.822 44.328 215.19 45.432 213.222 45.432C210.102 45.432 210.054 42.696 208.95 42.696C208.662 42.696 206.502 45.432 203.142 45.432C200.358 45.432 198.198 44.376 196.71 42.264C195.222 40.152 194.454 37.656 194.454 34.728C194.454 25.464 199.014 20.376 207.51 20.376ZM201.27 34.2C201.27 36.888 202.47 39.048 205.11 39.048C206.79 39.048 207.99 38.232 208.806 36.6C209.574 34.968 209.958 33.24 209.958 31.368C209.958 29.592 209.91 28.92 209.526 27.864C209.094 26.808 208.182 26.472 206.502 26.472C204.63 26.472 203.334 27.24 202.518 28.776C201.702 30.312 201.27 32.136 201.27 34.2ZM223.563 12.12C226.635 12.12 227.259 13.896 227.259 17.4C227.259 17.448 227.067 19.32 226.683 23.016C226.299 26.76 226.107 30.264 226.107 33.48C226.107 36.888 226.635 38.616 227.739 38.616C228.075 38.616 229.371 38.04 230.187 38.04C231.675 38.04 232.587 39.432 232.587 41.016C232.587 42.504 231.963 43.608 230.667 44.328C229.371 45.096 227.931 45.432 226.251 45.432C221.787 45.432 219.531 42.312 219.531 36.024C219.531 32.712 219.579 28.968 219.627 24.744C219.675 20.568 219.723 17.64 219.723 16.056C219.723 13.56 221.067 12.12 223.563 12.12ZM234.226 16.536C234.226 13.704 235.57 12.024 238.066 12.024C240.898 12.024 242.386 13.992 242.386 17.016C242.386 17.688 242.29 18.6 242.146 19.8C242.002 21 241.906 21.816 241.858 22.152C241.714 23.352 241.666 25.224 241.666 27.72C241.666 28.44 241.762 28.776 241.954 28.776C242.194 28.776 242.914 28.008 243.346 27.576C243.682 27.24 244.306 26.472 245.266 25.32C246.178 24.216 246.898 23.4 247.426 22.872C248.386 21.864 250.258 20.568 251.65 20.568C253.762 20.568 255.298 21.864 255.298 23.976C255.298 24.024 255.25 24.312 255.25 24.36C255.202 24.984 255.01 25.512 254.626 26.04C254.242 26.568 254.098 26.808 253.474 27.336C252.85 27.864 252.898 27.864 252.13 28.44C251.698 28.728 251.458 28.872 251.41 28.92C251.362 28.92 249.778 30.024 246.61 32.232C247.714 33.624 249.97 35.448 253.282 37.704C253.474 37.848 254.53 38.52 254.77 38.664C254.866 38.76 255.058 38.952 255.346 39.192C255.97 39.768 256.258 40.488 256.258 41.592C256.258 43.896 254.578 45.288 252.226 45.288C250.546 45.288 248.53 43.752 247.714 42.744C247.282 42.264 246.706 41.544 245.89 40.536C243.874 37.944 242.386 36.12 241.378 35.016C241.378 36.024 241.426 37.128 241.522 38.328C241.57 39.528 241.618 40.296 241.618 40.728C241.618 43.416 240.61 45.576 238.162 45.576C235.33 45.576 233.89 43.512 233.89 40.632C233.89 40.392 234.034 39.048 234.322 36.552C234.61 34.056 234.754 31.368 234.754 28.44C234.754 26.376 234.658 24.12 234.514 21.72C234.322 19.32 234.226 17.592 234.226 16.536ZM267.792 20.328C270.432 20.328 272.784 20.664 274.752 22.152C275.712 22.92 276.192 23.88 276.192 25.032C276.192 26.952 274.944 28.392 273.168 28.392C272.544 28.392 271.536 28.056 270.144 27.336C268.752 26.616 267.6 26.28 266.64 26.28C265.056 26.28 264.288 26.856 264.288 28.008C264.288 29.208 266.112 30.024 269.76 30.504C274.848 31.128 277.392 33.384 277.392 37.272C277.392 43.272 273.168 45.864 266.688 45.72C263.184 45.72 257.568 44.232 257.568 40.056C257.568 37.752 258.576 36.6 260.544 36.6C261.504 36.6 262.512 37.416 263.328 38.232C264.096 39.048 265.728 39.864 267.6 39.864C269.712 39.864 270.768 39.144 270.768 37.752C270.768 36.744 269.616 36.072 268.608 35.832C267.6 35.64 265.584 35.4 265.2 35.352C260.928 34.536 258 32.136 258 27.96C258 25.368 258.96 23.448 260.832 22.2C262.704 20.952 265.008 20.328 267.792 20.328Z" fill="#EB7470"/>
<path d="M287 24.1111C287 17.9746 291.866 13 297.87 13C302.672 13 306.565 16.9797 306.565 21.8889V45H287V24.1111Z" fill="#EB7470"/>
<path d="M306.13 25C312.134 25 317 29.9746 317 36.1111C317 41.0203 313.107 45 308.304 45H287V25H306.13Z" fill="#EB7470"/>
</svg>
