<svg width="19" height="23" viewBox="0 0 19 23" fill="none" xmlns="http://www.w3.org/2000/svg">
<path d="M8.12097 14.8247C7.5322 17.9104 6.81367 20.8688 4.68447 22.4141C4.02669 17.7501 5.64919 14.2473 6.40272 10.5284C5.11783 8.36633 6.55703 4.01483 9.26633 5.08681C12.6 6.4056 6.37974 13.126 10.555 13.9655C14.9153 14.8416 16.6954 6.40011 13.9921 3.65524C10.0855 -0.308766 2.62083 3.56497 3.53854 9.24026C3.7618 10.6275 5.19503 11.0483 4.11148 12.9635C1.61123 12.4087 0.865382 10.437 0.961135 7.80817C1.11597 3.50483 4.82728 0.492352 8.55053 0.0753881C13.2588 -0.451585 17.6776 1.80351 18.2878 6.23273C18.9751 11.2322 16.1629 16.6464 11.128 16.2568C9.76317 16.1506 9.19023 15.4742 8.12097 14.8247Z" fill="#EB7470"/>
</svg>
