<svg width="23" height="17" viewBox="0 0 23 17" fill="none" xmlns="http://www.w3.org/2000/svg">
<path fill-rule="evenodd" clip-rule="evenodd" d="M9.54838 11.2261V4.93693C11.7811 5.98751 13.5102 7.00239 15.5554 8.09657C13.8686 9.03203 11.7811 10.0817 9.54838 11.2261ZM21.9911 1.80902C21.606 1.30161 20.9496 0.906636 20.2507 0.775872C18.1967 0.385811 5.38222 0.384702 3.32927 0.775872C2.76887 0.880927 2.26985 1.13486 1.84118 1.52939C0.0349445 3.20586 0.600933 12.1962 1.03631 13.6525C1.21938 14.2828 1.45606 14.7374 1.75412 15.0359C2.13814 15.4304 2.66393 15.702 3.26786 15.8239C4.95912 16.1737 13.6721 16.3693 20.215 15.8764C20.8178 15.7713 21.3514 15.4909 21.7723 15.0796C23.4423 13.4099 23.3285 3.91466 21.9911 1.80902Z" fill="#EB7470"/>
</svg>
